#!OML:ASF X:\für Bonn\!DataBase\2005_08_12_Daniel\c3d\Daniel.ASF
:FULLY-SPECIFIED
:DEGREES
49
root 2.87005 17.5902 17.2422 -5.78259 11.9231 -1.29672
lowerback 6.29961 -0.849181 0.967075
upperback -0.26171 -1.16674 -2.82808
thorax -3.88555 -0.626799 -3.36305
lowerneck 3.17846 -1.95725 -3.86221
upperneck 11.9308 -2.70611 1.06394
head 3.36859 -1.46495 0.960814
rclavicle 7.50412e-015 2.38542e-015
rhumerus 10.3285 8.71942 -72.3472
rradius 83.3438
rwrist -4.59529
rhand -28.7411 16.4381
rfingers 7.12502
rthumb -2.10163 -13.5313
lclavicle 7.50412e-015 2.38542e-015
lhumerus -39.7553 42.547 59.3654
lradius 17.0121
lwrist -43.0527
lhand -11.1365 -5.6943
lfingers 7.12502
lthumb 14.889 23.7507
rfemur 11.2437 17.8981 22.7297
rtibia 12.2748
rfoot -23.6221 -25.4384
rtoes -13.7804
lfemur -0.00558504 -18.2484 -18.5306
ltibia 29.0756
lfoot -23.1337 5.67506
ltoes -14.017
50
root 2.86878 17.5935 17.2417 -5.81171 12.0047 -1.31263
lowerback 6.30666 -0.739328 1.10312
upperback -0.256924 -1.01359 -2.92687
thorax -3.87882 -0.554269 -3.55817
lowerneck 3.18327 -2.08979 -3.80001
upperneck 12.0341 -2.89514 1.18605
head 3.41067 -1.55258 0.986085
rclavicle 6.95746e-015 1.27222e-014
rhumerus 12.4714 8.23639 -71.5776
rradius 81.3376
rwrist -4.52179
rhand -28.6894 16.5502
rfingers 7.12502
rthumb -2.05171 -13.4197
lclavicle 6.95746e-015 1.27222e-014
lhumerus -39.6785 42.5763 59.1858
lradius 16.9216
lwrist -43.2412
lhand -11.1689 -5.67573
lfingers 7.12502
lthumb 14.8577 23.7715
rfemur 11.325 17.8489 22.7606
rtibia 12.1944
rfoot -23.6003 -25.4812
rtoes -13.7797
lfemur -0.00436715 -18.2588 -18.5049
ltibia 29.0815
lfoot -23.1193 5.60062
ltoes -14.0194
51
root 2.86692 17.5937 17.241 -5.81786 12.082 -1.3
lowerback 6.30426 -0.626211 1.19994
upperback -0.26613 -0.859 -3.02032
thorax -3.87921 -0.480383 -3.72586
lowerneck 3.21461 -2.21689 -3.74526
upperneck 12.1227 -3.07596 1.28647
head 3.44238 -1.63698 1.00587
rclavicle -6.41081e-015 -1.19271e-014
rhumerus 14.5464 7.76404 -70.809
rradius 79.3355
rwrist -4.3982
rhand -28.5538 16.5472
rfingers 7.12502
rthumb -1.92081 -13.4239
lclavicle -6.41081e-015 -1.19271e-014
lhumerus -39.646 42.609 58.9906
lradius 16.8426
lwrist -43.4589
lhand -11.2135 -5.67544
lfingers 7.12502
lthumb 14.8148 23.775
rfemur 11.3797 17.791 22.7459
rtibia 12.1226
rfoot -23.6013 -25.4881
rtoes -13.7244
lfemur -0.0283642 -18.2484 -18.5024
ltibia 29.0924
lfoot -23.0981 5.53054
ltoes -14.0714
52
root 2.86508 17.5941 17.2412 -5.81967 12.1579 -1.29931
lowerback 6.28023 -0.514799 1.31166
upperback -0.267362 -0.705357 -3.11483
thorax -3.85836 -0.406886 -3.90314
lowerneck 3.22495 -2.3469 -3.68799
upperneck 12.2167 -3.2616 1.40128
head 3.4805 -1.72306 1.02962
rclavicle 1.2424e-014 1.90833e-014
rhumerus 16.5743 7.26961 -70.1379
rradius 77.3198
rwrist -4.14333
rhand -28.4371 16.5004
rfingers 7.12502
rthumb -1.8081 -13.4717
lclavicle 1.2424e-014 1.90833e-014
lhumerus -39.5892 42.6437 58.8066
lradius 16.7611
lwrist -43.643
lhand -11.2391 -5.70904
lfingers 7.12502
lthumb 14.7901 23.7432
rfemur 11.4282 17.7667 22.757
rtibia 12.0548
rfoot -23.6016 -25.5422
rtoes -13.7166
lfemur -0.0554969 -18.2396 -18.4852
ltibia 29.1023
lfoot -23.0829 5.47258
ltoes -14.1421
53
root 2.86321 17.594 17.2402 -5.83467 12.2429 -1.28937
lowerback 6.29159 -0.408124 1.40546
upperback -0.269307 -0.55916 -3.20203
thorax -3.8574 -0.336878 -4.06193
lowerneck 3.22192 -2.47648 -3.64151
upperneck 12.3199 -3.44497 1.50071
head 3.5244 -1.80886 1.05001
rclavicle -3.18055e-014 7.95139e-016
rhumerus 18.5273 6.77868 -69.4898
rradius 75.3072
rwrist -3.81826
rhand -28.2465 16.4081
rfingers 7.12502
rthumb -1.62399 -13.5655
lclavicle -3.18055e-014 7.95139e-016
lhumerus -39.5739 42.7631 58.5673
lradius 16.667
lwrist -43.9322
lhand -11.2949 -5.74983
lfingers 7.12502
lthumb 14.7364 23.7064
rfemur 11.4676 17.7225 22.7551
rtibia 12.0343
rfoot -23.6287 -25.5628
rtoes -13.6572
lfemur -0.0809771 -18.2422 -18.4794
ltibia 29.1288
lfoot -23.0725 5.38931
ltoes -14.145
54
root 2.86126 17.5949 17.2402 -5.83553 12.3174 -1.28971
lowerback 6.26859 -0.299545 1.51564
upperback -0.270713 -0.409135 -3.29023
thorax -3.8354 -0.26496 -4.23146
lowerneck 3.25151 -2.60153 -3.58013
upperneck 12.3939 -3.6229 1.59433
head 3.5514 -1.89135 1.06634
rclavicle -1.1281e-014 -1.66979e-014
rhumerus 20.448 6.27271 -68.895
rradius 73.2501
rwrist -3.42988
rhand -27.9971 16.304
rfingers 7.12502
rthumb -1.38309 -13.6712
lclavicle -1.1281e-014 -1.66979e-014
lhumerus -39.5708 42.8603 58.3282
lradius 16.6007
lwrist -44.203
lhand -11.3148 -5.8244
lfingers 7.12502
lthumb 14.7172 23.6332
rfemur 11.487 17.6591 22.7553
rtibia 12.0113
rfoot -23.6293 -25.5766
rtoes -13.667
lfemur -0.115316 -18.2618 -18.4684
ltibia 29.1565
lfoot -23.066 5.34897
ltoes -14.1945
55
root 2.8591 17.595 17.2399 -5.8476 12.3941 -1.2905
lowerback 6.27483 -0.191312 1.62141
upperback -0.278048 -0.26006 -3.37961
thorax -3.83504 -0.193806 -4.39988
lowerneck 3.27222 -2.73606 -3.5127
upperneck 12.4817 -3.81373 1.68985
head 3.58541 -1.97984 1.08176
rclavicle -1.22253e-014 -1.59028e-014
rhumerus 22.2911 5.77804 -68.3124
rradius 71.1967
rwrist -3.00481
rhand -27.6845 16.1392
rfingers 7.12502
rthumb -1.08117 -13.8378
lclavicle -1.22253e-014 -1.59028e-014
lhumerus -39.5008 42.8056 58.1886
lradius 16.5381
lwrist -44.2882
lhand -11.3101 -5.87768
lfingers 7.12502
lthumb 14.7217 23.5796
rfemur 11.5094 17.6059 22.7625
rtibia 12.0005
rfoot -23.6412 -25.5988
rtoes -13.667
lfemur -0.141027 -18.2597 -18.4484
ltibia 29.1807
lfoot -23.0476 5.26705
ltoes -14.2001
56
root 2.85713 17.5953 17.2398 -5.84843 12.4685 -1.29085
lowerback 6.25994 -0.0977202 1.69658
upperback -0.27814 -0.131712 -3.44396
thorax -3.81589 -0.131665 -4.52244
lowerneck 3.274 -2.8403 -3.46476
upperneck 12.5606 -3.96288 1.78021
head 3.61903 -2.04851 1.09962
rclavicle -1.00883e-014 6.36111e-015
rhumerus 24.1406 5.32434 -67.7513
rradius 69.0948
rwrist -2.50689
rhand -27.3269 15.9627
rfingers 7.12502
rthumb -0.735858 -14.0157
lclavicle -1.00883e-014 6.36111e-015
lhumerus -39.5615 42.9973 57.8904
lradius 16.4747
lwrist -44.6069
lhand -11.3231 -5.95098
lfingers 7.12502
lthumb 14.7092 23.5072
rfemur 11.523 17.5407 22.7582
rtibia 11.9884
rfoot -23.6666 -25.5898
rtoes -13.6142
lfemur -0.179199 -18.2465 -18.4275
ltibia 29.2053
lfoot -23.0355 5.19412
ltoes -14.2507
57
root 2.85482 17.5959 17.2401 -5.85432 12.5468 -1.27777
lowerback 6.26119 -0.00745925 1.76001
upperback -0.285097 -0.00914451 -3.51787
thorax -3.81289 -0.0726016 -4.64804
lowerneck 3.29852 -2.95196 -3.37561
upperneck 12.6335 -4.11891 1.83136
head 3.64421 -2.12007 1.09736
rclavicle 8.15017e-015 -1.59028e-014
rhumerus 25.9362 4.87629 -67.2417
rradius 66.8736
rwrist -1.97897
rhand -26.9273 15.8842
rfingers 7.12502
rthumb -0.349887 -14.0952
lclavicle 8.15017e-015 -1.59028e-014
lhumerus -39.6344 43.1933 57.5533
lradius 16.3914
lwrist -44.917
lhand -11.3253 -6.00783
lfingers 7.12502
lthumb 14.7071 23.4505
rfemur 11.5522 17.4808 22.7501
rtibia 11.9699
rfoot -23.676 -25.6078
rtoes -13.6224
lfemur -0.207408 -18.233 -18.4232
ltibia 29.231
lfoot -23.0262 5.11864
ltoes -14.3013
58
root 2.85255 17.596 17.24 -5.86402 12.621 -1.27976
lowerback 6.25797 0.0826549 1.83027
upperback -0.284398 0.114366 -3.57947
thorax -3.79871 -0.0127448 -4.76457
lowerneck 3.3161 -3.06486 -3.2897
upperneck 12.7028 -4.27599 1.87795
head 3.66939 -2.19233 1.094
rclavicle -7.25564e-015 3.33958e-014
rhumerus 27.6803 4.437 -66.7433
rradius 64.5397
rwrist -1.41792
rhand -26.492 15.8897
rfingers 7.12502
rthumb 0.0705082 -14.09
lclavicle -7.25564e-015 3.33958e-014
lhumerus -39.784 43.5679 57.0829
lradius 16.2739
lwrist -45.4411
lhand -11.3216 -6.11145
lfingers 7.12502
lthumb 14.7106 23.3466
rfemur 11.5798 17.4674 22.7719
rtibia 11.9546
rfoot -23.6961 -25.6641
rtoes -13.6082
lfemur -0.231451 -18.2595 -18.4089
ltibia 29.2557
lfoot -23.0234 5.06684
ltoes -14.3546
59
root 2.85021 17.5961 17.2401 -5.87296 12.6965 -1.28012
lowerback 6.25734 0.174396 1.90525
upperback -0.288504 0.240096 -3.64775
thorax -3.79015 0.0479158 -4.89116
lowerneck 3.34574 -3.1741 -3.21111
upperneck 12.7762 -4.43041 1.94299
head 3.69449 -2.26294 1.09824
rclavicle -6.16232e-015 3.33958e-014
rhumerus 29.3911 3.99362 -66.2654
rradius 62.1328
rwrist -0.839992
rhand -26.0041 15.9105
rfingers 7.12502
rthumb 0.541816 -14.0686
lclavicle -6.16232e-015 3.33958e-014
lhumerus -39.8935 43.8035 56.7049
lradius 16.2037
lwrist -45.8014
lhand -11.3289 -6.19215
lfingers 7.12502
lthumb 14.7036 23.2664
rfemur 11.5992 17.3748 22.763
rtibia 11.9436
rfoot -23.7098 -25.6323
rtoes -13.571
lfemur -0.258538 -18.2423 -18.3885
ltibia 29.2771
lfoot -23.0117 4.98798
ltoes -14.4055
